<svg width="20" height="20" viewBox="0 0 20 20" fill="none" xmlns="http://www.w3.org/2000/svg">
<path d="M15.5 13.4167C15.1667 13.4167 14.75 13.25 14.5 13L12.5 11C12.25 10.75 12.0834 10.3333 12.0834 10C12.0834 9.66667 12.25 9.25 12.5 9L14.5 7C15.0834 6.41667 16 6.41667 16.5834 7L18.5834 9C18.8334 9.25 19 9.66667 19 10C19 10.3333 18.8334 10.75 18.5834 11L16.5834 13C16.3334 13.25 15.9167 13.4167 15.5834 13.4167H15.5ZM15.5 7.83333C15.5 7.83333 15.4167 7.83333 15.3334 7.83333L13.3334 9.83333C13.3334 9.83333 13.3334 9.91667 13.3334 10C13.3334 10.0833 13.3334 10.0833 13.3334 10.1667L15.3334 12.1667C15.3334 12.1667 15.5834 12.1667 15.6667 12.1667L17.6667 10.1667C17.6667 10.1667 17.6667 10.0833 17.6667 10C17.6667 9.91667 17.6667 9.91667 17.6667 9.83333L15.6667 7.83333C15.6667 7.83333 15.5834 7.83333 15.5 7.83333Z" fill="#374151"/>
<path d="M4.5 13.4167C4.16667 13.4167 3.75 13.2501 3.5 13.0001L1.5 11.0001C0.916667 10.4167 0.916667 9.50008 1.5 8.91675L3.5 6.91675C4.08333 6.33341 5 6.33341 5.58333 6.91675L7.58333 8.91675C7.83333 9.16675 8 9.58341 8 9.91675C8 10.2501 7.83333 10.6667 7.58333 10.9167L5.58333 12.9167C5.33333 13.1667 4.91667 13.3334 4.58333 13.3334L4.5 13.4167ZM4.5 7.83341C4.5 7.83341 4.41667 7.83341 4.33333 7.83341L2.33333 9.83341C2.33333 9.83341 2.33333 10.0834 2.33333 10.1667L4.33333 12.1667C4.33333 12.1667 4.58333 12.1667 4.66667 12.1667L6.66667 10.1667C6.66667 10.1667 6.66667 10.0834 6.66667 10.0001C6.66667 9.91675 6.66667 9.91675 6.66667 9.83341L4.66667 7.83341C4.66667 7.83341 4.58333 7.83341 4.5 7.83341Z" fill="black"/>
<path d="M10 18.9167C9.66671 18.9167 9.25004 18.75 9.00004 18.5L7.00004 16.5C6.75004 16.25 6.58337 15.8333 6.58337 15.5C6.58337 15.0833 6.75004 14.75 7.00004 14.5L9.00004 12.5C9.58337 11.9167 10.5 11.9167 11.0834 12.5L13.0834 14.5C13.6667 15.0833 13.6667 16 13.0834 16.5833L11.0834 18.5833C10.8334 18.8333 10.4167 19 10.0834 19L10 18.9167ZM10 13.3333C10 13.3333 9.91671 13.3333 9.83337 13.3333L7.83337 15.3333C7.83337 15.3333 7.83337 15.4167 7.83337 15.5C7.83337 15.5833 7.83337 15.5833 7.83337 15.6667L9.83337 17.6667C9.83337 17.6667 10.0834 17.6667 10.1667 17.6667L12.1667 15.6667C12.1667 15.6667 12.1667 15.4167 12.1667 15.3333L10.1667 13.3333C10.1667 13.3333 10.0834 13.3333 10 13.3333Z" fill="black"/>
<path d="M10 7.91675C9.66667 7.91675 9.25 7.75008 9 7.50008L7 5.50008C6.41667 4.91675 6.41667 4.00008 7 3.41675L9 1.41675C9.58333 0.833415 10.5 0.833415 11.0833 1.41675L13.0833 3.41675C13.6667 4.00008 13.6667 4.91675 13.0833 5.50008L11.0833 7.50008C10.8333 7.75008 10.4167 7.91675 10.0833 7.91675H10ZM10 2.33341C10 2.33341 9.91667 2.33341 9.83333 2.33341L7.83333 4.33341C7.83333 4.33341 7.83333 4.41675 7.83333 4.50008C7.83333 4.58341 7.83333 4.58341 7.83333 4.66675L9.83333 6.66675C9.83333 6.66675 10.0833 6.66675 10.1667 6.66675L12.1667 4.66675C12.1667 4.66675 12.1667 4.58341 12.1667 4.50008C12.1667 4.41675 12.1667 4.41675 12.1667 4.33341L10.1667 2.33341C10.1667 2.33341 10.0833 2.33341 10 2.33341Z" fill="black"/>
</svg>
