<svg width="24" height="24" viewBox="0 0 24 24" fill="none" xmlns="http://www.w3.org/2000/svg">
<path d="M2.99857 6H17.9771V6.5478C18.3253 6.59925 18.6599 6.6912 18.9757 6.81855V5H2V17H9.9886V18H7.99145C7.7157 18 7.49215 18.2239 7.49215 18.5C7.49215 18.7761 7.7157 19 7.99145 19H12.9843C13.26 19 13.4836 18.7761 13.4836 18.5C13.4836 18.2239 13.26 18 12.9843 18H10.9872V17H18.9757V14.679C18.6598 14.8064 18.3252 14.8984 17.9771 14.9499V16H2.99857V10.6875H6.16L7.1787 9.03095L8.90825 12.5309L10.58 9.81245H13.2927C13.3534 9.4613 13.4599 9.12585 13.6058 8.81245H10.0222L9.00345 10.469L7.27395 6.969L5.60225 9.68745H2.99857V6Z" fill="#164E63"/>
<path fill-rule="evenodd" clip-rule="evenodd" d="M17.4031 14C18.183 14 18.8987 13.7245 19.4583 13.2654L21.2939 15.1035L22 14.3964L20.1257 12.5195C20.4564 12.0103 20.6484 11.4026 20.6484 10.75C20.6484 8.95505 19.1954 7.5 17.4031 7.5C15.6107 7.5 14.1577 8.95505 14.1577 10.75C14.1577 12.545 15.6107 14 17.4031 14ZM17.4031 13C18.6439 13 19.6499 11.9927 19.6499 10.75C19.6499 9.50735 18.6439 8.5 17.4031 8.5C16.1622 8.5 15.1563 9.50735 15.1563 10.75C15.1563 11.9927 16.1622 13 17.4031 13Z" fill="#164E63"/>
<path d="M3.99707 13H6.99278V12H3.99707V13Z" fill="#164E63"/>
<path d="M3.99707 15V14H9.98853V15H3.99707Z" fill="#164E63"/>
</svg>
